<svg width="300" height="300" viewBox="0 0 300 300" fill="none" xmlns="http://www.w3.org/2000/svg">
<rect width="300" height="300" fill="url(#paint0_linear_128_37)"/>
<path d="M271.697 198.68C269.55 200.733 266.89 201.76 263.717 201.76C260.543 201.76 257.883 200.733 255.737 198.68C253.59 196.533 252.517 193.92 252.517 190.84C252.517 187.76 253.59 185.193 255.737 183.14C257.883 180.993 260.543 179.92 263.717 179.92C266.89 179.92 269.55 180.993 271.697 183.14C273.843 185.287 274.917 187.853 274.917 190.84C274.917 193.92 273.843 196.533 271.697 198.68Z" fill="white"/>
<path d="M158.797 201.76C151.424 201.76 145.404 199.707 140.737 195.6C136.071 191.4 133.737 185.52 133.737 177.96C133.737 170.12 136.351 164.193 141.577 160.18C146.897 156.167 153.291 154.16 160.757 154.16C167.477 154.16 172.984 155.42 177.277 157.94V154.3C177.277 149.727 176.157 146.413 173.917 144.36C171.771 142.307 168.364 141.28 163.697 141.28C156.324 141.28 149.557 143.52 143.397 148L138.357 134.7C146.197 129.473 155.297 126.86 165.657 126.86C176.017 126.86 183.251 129.707 187.357 135.4C192.864 129.707 200.377 126.86 209.897 126.86C219.044 126.86 226.511 129.707 232.297 135.4C238.177 141.093 241.117 149.447 241.117 160.46C241.117 164.38 240.884 167.74 240.417 170.54H193.237C193.424 175.58 195.104 179.64 198.277 182.72C201.544 185.8 205.417 187.34 209.897 187.34C216.244 187.34 221.284 184.867 225.017 179.92L235.377 190.56C229.124 198.027 220.631 201.76 209.897 201.76C198.884 201.76 190.484 197.933 184.697 190.28C177.417 197.933 168.784 201.76 158.797 201.76ZM193.237 156.68H224.877C224.504 151.64 222.917 147.813 220.117 145.2C217.317 142.587 213.911 141.28 209.897 141.28C205.231 141.28 201.404 142.54 198.417 145.06C195.431 147.58 193.704 151.453 193.237 156.68ZM162.157 187.34C168.131 187.34 173.171 185.053 177.277 180.48V171.24C173.544 169.28 169.017 168.3 163.697 168.3C159.591 168.3 156.231 169.093 153.617 170.68C151.004 172.267 149.697 174.693 149.697 177.96C149.697 180.853 150.771 183.14 152.917 184.82C155.064 186.5 158.144 187.34 162.157 187.34Z" fill="white"/>
<path d="M57 200.08V106.56L73.38 99V135.26C78.0467 129.66 84.3467 126.86 92.28 126.86C99.7467 126.86 105.813 129.193 110.48 133.86C115.24 138.527 117.62 145.947 117.62 156.12V200.08H101.24V158.78C101.24 147.86 96.8067 142.4 87.94 142.4C78.2333 142.4 73.38 147.767 73.38 158.5V200.08H57Z" fill="white"/>
<defs>
<linearGradient id="paint0_linear_128_37" x1="150" y1="4.47035e-06" x2="300" y2="300" gradientUnits="userSpaceOnUse">
<stop stop-color="#BF1313"/>
<stop offset="1" stop-color="#600000"/>
</linearGradient>
</defs>
</svg>
