<svg width="300" height="300" viewBox="0 0 300 300" fill="none" xmlns="http://www.w3.org/2000/svg">
<rect width="300" height="300" fill="url(#paint0_linear_128_2)"/>
<path d="M232.255 198.68C230.108 200.733 227.449 201.76 224.275 201.76C221.102 201.76 218.442 200.733 216.295 198.68C214.148 196.533 213.075 193.92 213.075 190.84C213.075 187.76 214.148 185.193 216.295 183.14C218.442 180.993 221.102 179.92 224.275 179.92C227.449 179.92 230.108 180.993 232.255 183.14C234.402 185.287 235.475 187.853 235.475 190.84C235.475 193.92 234.402 196.533 232.255 198.68Z" fill="white"/>
<path d="M196.198 115.94C194.331 117.807 192.044 118.74 189.338 118.74C186.631 118.74 184.298 117.807 182.338 115.94C180.471 113.98 179.538 111.647 179.538 108.94C179.538 106.233 180.471 103.947 182.338 102.08C184.298 100.213 186.631 99.28 189.338 99.28C192.044 99.28 194.331 100.213 196.198 102.08C198.064 103.947 198.998 106.233 198.998 108.94C198.998 111.647 198.064 113.98 196.198 115.94ZM181.078 200.08V128.54H197.458V200.08H181.078Z" fill="white"/>
<path d="M100 200.08V106.56L116.38 99V135.26C121.047 129.66 127.347 126.86 135.28 126.86C142.747 126.86 148.813 129.193 153.48 133.86C158.24 138.527 160.62 145.947 160.62 156.12V200.08H144.24V158.78C144.24 147.86 139.807 142.4 130.94 142.4C121.233 142.4 116.38 147.767 116.38 158.5V200.08H100Z" fill="white"/>
<defs>
<linearGradient id="paint0_linear_128_2" x1="150" y1="4.47035e-06" x2="300" y2="300" gradientUnits="userSpaceOnUse">
<stop stop-color="#BF1313"/>
<stop offset="1" stop-color="#600000"/>
</linearGradient>
</defs>
</svg>
